<?xml version="1.0" encoding="utf-8"?>

<!DOCTYPE svg PUBLIC "-//W3C//DTD SVG 1.1//EN" "http://www.w3.org/Graphics/SVG/1.1/DTD/svg11.dtd">
<!-- Uploaded to: SVG Repo, www.svgrepo.com, Generator: SVG Repo Mixer Tools -->
<svg version="1.1" id="_x32_" xmlns="http://www.w3.org/2000/svg" xmlns:xlink="http://www.w3.org/1999/xlink" 
	 viewBox="0 0 512 512"  xml:space="preserve">
<style type="text/css">
	.st0{fill:#000000;}
</style>
<g>
	<path class="st0" d="M385.223,53.843h-78.412c0.058-0.935,0.171-1.845,0.171-2.787c0-1.853-0.072-3.707-0.357-5.486
		C303.926,19.936,282.275,0,256.008,0c-26.34,0-47.983,19.936-50.69,45.57c-0.292,1.779-0.357,3.633-0.357,5.486
		c0,0.942,0.113,1.852,0.17,2.787h-78.355c-19.806,0-35.832,16.019-35.832,35.833v193.265c0,21.781,8.882,42.611,24.544,57.736
		l82.597,79.29h-0.634v23.772c0,6.762,5.486,12.248,12.248,12.248h34.28V512h24.008v-56.013h34.273
		c6.754,0,12.247-5.486,12.247-12.248v-23.772h-0.642l82.581-79.29c15.726-15.125,24.61-35.955,24.61-57.736V89.676
		C421.056,69.862,405.029,53.843,385.223,53.843z M231.732,45.57c2.422-11.175,12.32-19.441,24.275-19.441
		c11.882,0,21.854,8.266,24.276,19.441c0.431,1.779,0.642,3.633,0.642,5.486c0,0.942-0.106,1.869-0.211,2.787h-49.414
		c-0.106-0.918-0.212-1.845-0.212-2.787C231.09,49.202,231.301,47.349,231.732,45.57z M397.048,282.941
		c0,15.248-6.242,29.827-17.23,40.392l-77.664,74.608H209.78l-77.664-74.608c-10.98-10.565-17.165-25.145-17.165-40.392V89.676
		c0-3.3,1.26-6.185,3.422-8.347c2.226-2.161,5.103-3.478,8.403-3.478h258.446c3.3,0,6.185,1.317,8.346,3.478
		c2.162,2.162,3.479,5.048,3.479,8.347V282.941z"/>
	<path class="st0" d="M142.568,282.941c0,7.681,3.178,15.182,8.696,20.522l69.626,66.927h70.163l69.626-66.927
		c5.575-5.34,8.761-12.841,8.761-20.522v-41.059H142.568V282.941z"/>
	<rect x="142.568" y="193.867" class="st0" width="48.016" height="16.027"/>
	<rect x="142.568" y="155.881" class="st0" width="48.016" height="16.019"/>
	<rect x="142.568" y="117.877" class="st0" width="48.016" height="15.971"/>
</g>
</svg>